<?xml version="1.0" encoding="UTF-8"?>
<svg width="88px" height="83px" viewBox="0 0 88 83" version="1.1" xmlns="http://www.w3.org/2000/svg" xmlns:xlink="http://www.w3.org/1999/xlink">
    <!-- Generator: Sketch 48.2 (47327) - http://www.bohemiancoding.com/sketch -->
    <title>Vulcan Hand</title>
    <desc>Created with Sketch.</desc>
    <defs>
        <path d="M18.6919879,72.5000221 C14.5535951,72.5000221 10.9777022,69.6875221 9.97323791,65.6696649 L5.9152022,49.5580578 C5.59377363,48.1518078 5.39288077,46.6652006 5.39288077,45.2187721 C5.39288077,44.2946649 5.39288077,43.4107363 5.19198791,42.5268078 L0.531273629,23.3616292 C0.330380772,22.5982363 0.250023629,21.8348435 0.250023629,21.0714506 C0.250023629,16.0893078 4.02680934,11.9910935 8.96877363,11.4687721 C9.8527022,6.92859348 13.7500236,3.71430777 18.4107379,3.71430777 C22.8705593,3.71430777 26.7277022,6.7678792 27.7723451,11.1071649 L31.1071665,25.0893078 L35.2455593,7.8928792 C36.2902022,3.55359348 40.1473451,0.500022054 44.6071665,0.500022054 C49.3884165,0.500022054 53.3259165,3.9553792 54.0893093,8.61609348 C59.0312736,9.17859348 62.6071665,13.3571649 62.6071665,18.2991292 C62.6071665,19.0625221 62.4866308,19.8660935 62.3259165,20.6696649 L57.3839522,41.2410935 C60.5982379,38.8303792 62.9285951,36.5000221 67.1473451,36.5000221 C72.7321665,36.5000221 77.3928808,41.0402006 77.3928808,46.6652006 C77.3928808,50.0402006 75.7455593,53.1741292 73.0937736,55.1830578 L52.7232379,70.4509149 C50.9553808,71.7768078 48.7857379,72.5000221 46.5759165,72.5000221 L18.6919879,72.5000221 Z M44.6071665,5.6428792 C42.5580593,5.6428792 40.7500236,7.08930777 40.2678808,9.09823634 L33.6785951,36.5000221 L28.5759165,36.5000221 L22.7500236,12.3125221 C22.2678808,10.3035935 20.4598451,8.85716491 18.4107379,8.85716491 C15.8393093,8.85716491 13.9107379,10.9062721 13.9107379,13.3973435 C13.9107379,13.7991292 13.9509165,14.1607363 14.0312736,14.5223435 L19.3348451,36.5000221 L18.2902022,36.5000221 L14.3125236,20.1071649 C13.8303808,18.1384149 12.0223451,16.5714506 9.93305934,16.5714506 C7.44198791,16.5714506 5.39288077,18.5803792 5.39288077,21.0714506 C5.39288077,21.4330578 5.43305934,21.7946649 5.51341649,22.1160935 L10.1741308,41.3214506 C10.7366308,43.6518078 10.3348451,45.9821649 10.9375236,48.3125221 L14.9553808,64.4241292 C15.3973451,66.1518078 16.9241308,67.3571649 18.6919879,67.3571649 L46.5759165,67.3571649 C47.6607379,67.3571649 48.7455593,66.9955578 49.6294879,66.3125221 L70.0000236,51.0848435 C71.3660951,50.0402006 72.2500236,48.3928792 72.2500236,46.6652006 C72.2500236,43.8527006 69.9196665,41.6428792 67.1473451,41.6428792 C66.0223451,41.6428792 64.9375236,42.0044863 64.0535951,42.6875221 L51.7187736,51.9285935 L51.7187736,42.8080578 C51.7187736,42.4866292 56.9018093,21.1919863 57.3035951,19.4643078 C57.3839522,19.1027006 57.4643093,18.7009149 57.4643093,18.2991292 C57.4643093,15.8080578 55.5759165,13.6785935 53.0044879,13.6785935 C50.9152022,13.6785935 49.1071665,15.1250221 48.6250236,17.1339506 L43.9643093,36.5000221 L42.9196665,36.5000221 L48.9464522,11.4285935 C49.0268093,11.0669863 49.0669879,10.6652006 49.0669879,10.3035935 C49.0669879,7.77234348 47.2187736,5.6428792 44.6071665,5.6428792 Z" id="path-1"></path>
    </defs>
    <g id="Index---Desktop" stroke="none" stroke-width="1" fill="none" fill-rule="evenodd" transform="translate(-1124.000000, -203.000000)">
        <g id="Group-7" transform="translate(0.000000, 208.000000)">
            <g id="Vulcan-Hand" transform="translate(1129.000000, 0.000000)">
                <polygon id="Rectangle-7" fill="#FFFFFF" points="8 38 4 21 8 16 17 6 24 12 31 34 37 12 41 4 49 5 52 10 60 17 56 36 54 48 69 42 73 48 54 62 54 70 11 70"></polygon>
                <g id="hand">
                    <use fill="#6753AA" fill-rule="evenodd" xlink:href="#path-1"></use>
                    <use fill="black" fill-opacity="1" xlink:href="#path-1"></use>
                </g>
            </g>
        </g>
    </g>
</svg>